<svg version="1" xmlns="http://www.w3.org/2000/svg" width="933.333" height="933.333" viewBox="0 0 700.000000 700.000000"><path d="M334 55c-25.8 2.3-58 13.6-77.9 27.3-6.9 4.7-23.7 20.7-35.2 33.2-18.2 20-31.5 50.2-36 81.7l-1.3 8.8H180c-1.9 0-6.2.5-9.5 1-3.3.6-9.1 1.5-13 2-9.5 1.4-18 4.2-31 10.5-17.8 8.6-26.1 15.6-43.5 36.9-5.5 6.7-16.9 27.5-17 30.8 0 1.2-.5 1.5-1.7 1.1-1.1-.4-1.4-.3-.9.5.4.7.3 1.2-.3 1.2-1.6 0-5 11.8-6.5 22.5-2 13.9-3.1 32.5-1.8 32.5.9 0 2.8 12.8 2.4 16.5-.4 3.3 4.6 17.3 10.7 30 10.2 21.1 24.4 38.3 40.6 49.2 20.6 13.8 37.7 21.8 53 24.6 8.5 1.6 38.2 3.3 35.3 2-.9-.5 23.5-.8 54.3-.8 30.8 0 54.5.3 52.7.7-3.6.7-50.3 1.6-99.3 1.9-31.1.3-29.8.6 7.5 1.9l7.5.3-7.5.9c-10.5 1.3-43.9.3-52.3-1.6-8.3-1.9-32.9-9.7-32.3-10.3.2-.3 3.9.7 8.3 2 15.3 4.9 16.8 4.4 2.3-.8-14.7-5.3-27.5-13.1-43.8-26.6-5.2-4.3-9.9-7.9-10.4-7.9-2.4 0-.1 4.2 4.9 9.2 8.3 8 17.4 14.3 22.7 15.7 2.5.6 5.3 2 6.3 3 1 1.1 3.4 2.6 5.3 3.4 1.9.9 2.8 1.6 2 1.6-.8.1.9 1.5 3.8 3.2 7.3 4.2 22.7 8.7 34.2 10.1 11.2 1.4 132.2 1.9 144.4.7 6.6-.7 8.8-1.4 13.1-4.3 3.3-2.2 5.9-4.9 7.2-7.5l2-4 .6 11.2c1.1 17.6.9 41.9-.3 41.2-.6-.4-1 .6-.9 2.2 0 2.3.2 2.5.8.9.8-2 .8-2 1.2 0 .3 1 .3 4.1 0 6.9-.3 4.1-.6 4.6-1.2 2.5-.8-2.7-.9-.1-1.1 30-.1 11.6.3 18.3 1 19.7.7 1.2 1.2 3.2 1.1 4.5 0 2.2-.1 2.2-.9.3-.8-1.8-.9-1.8-.9.5-.1 1.8-.4 2.1-1 1.1-.5-.7-1.4-1.1-1.9-.7-.6.4-2.1-.8-3.4-2.5-1.3-1.7-5.2-5.3-8.6-8.1-3.5-2.7-6.1-5.2-5.8-5.6.7-.7-5.3-7.2-6.7-7.2-.5 0-6.3-5.2-13-11.5-6.6-6.3-12.5-11.5-13.2-11.5-.6 0-2.4-1.4-4-3-3-3.1-2.5-4.2.7-1.3 1 .9 1.8 1.4 1.8 1.1 0-.9-16.1-14.1-16.6-13.6-.2.3 1 1.8 2.8 3.4 1.8 1.7 4.5 4.5 5.9 6.4 1.5 1.9 5.1 5.7 8 8.5 3 2.7 8.1 7.7 11.4 11.1 3.3 3.3 9.8 9.7 14.5 14.1 4.7 4.4 8.6 8.4 8.8 8.9.2.5 1.1 1.8 2 2.9 2.6 3.1-8.1-6.7-21.5-19.7-11.2-10.7-14.5-13.6-12.8-10.8.3.5.4 1 .2 1s-1.6-1.7-3-3.8c-1.4-2.1-3.2-3.9-4.1-3.9-.9 0-1.6.3-1.6.5 0 .3 3 3.6 6.6 7.3 3.6 3.8 6.3 7.3 6 7.8-.3.5 1.2 2.4 3.5 4.1 2.2 1.8 7.2 7.1 11.1 11.9 3.9 4.7 11.1 12.5 15.8 17.2 4.8 4.7 8.9 9.1 9.1 9.7.2.6 3.2 4 6.7 7.6 6 6.2 8.2 8.1 6.6 5.5-.4-.7-.1-1 .7-.7.8.2 1.9 1.6 2.6 2.9 1.4 2.9 6.1 7.5 6.8 6.7 1.1-1.1.6-114.7-.5-116.8-.7-1.3-.9-5.5-.5-11.8.4-5.3.2-13.5-.3-18.2-.6-4.7-.7-10.3-.2-12.5.7-3.6.8-3.7 1-1 .1 1.6.6 3.9 1.1 5 .6 1.3.8-4.4.5-15.9-.2-9.8-.8-18.1-1.2-18.5-.5-.3-.9-3.8-1-7.6 0-3.9.1-5.8.3-4.3.3 1.6 1.1 2.8 1.9 2.8 1.3 0 1.4-3.2 1-23.8-.2-13-.7-26.2-1-29.2-.4-3.7-.3-5 .4-4 .7 1.1.9.4.7-2.5-.1-2.2.2-10.1.6-17.5.8-12.5.4-18.1-1.7-23.1-.5-1.2 0-1.8 1.9-2.3 1.5-.4 2.3-1.1 1.9-1.7-.3-.6.5-.3 2 .6 2 1.3 2.6 2.6 2.7 5.4l.1 3.6.8-3c.6-2.3.8-1.2.9 4.2 0 4-.3 7.3-.8 7.3-.8 0-.8 35.6 0 87.5 0 2.7-.2 18.9-.5 36-.6 30.5-.2 40.3 1.4 36 .4-1.1.6-11.6.5-23.3-.2-11.8.1-21 .5-20.5 1 1 1.9 43.4 1 42.8-1.1-.7-2 6-2.1 15.5 0 5.7-.3 7.8-.9 6.5-1.3-2.9-1.3 10.1 0 14.5.8 2.8.7 3.7-.5 4.6-1.3 1-1.4 2-.6 5.5 1 4.5.8 18-.4 30.6-.4 3.9-.3 7.7.1 8.5.6.8 1.1-.8 1.5-4.7l.6-6 .1 8c.1 4.6-.2 7.4-.7 6.7-1.3-2.1-2.2 18.3-1.5 31.8.5 8.1 1.1 12 1.9 12 2.1 0 9-6.7 23.4-22.9 7.9-8.8 14.7-15.9 15.1-15.6.3.2 3.3-2.4 6.6-5.8 3.2-3.4 4.9-5.3 3.6-4.3-1.2 1.1-2.5 1.6-2.9 1.2-.4-.3-2.4 1-4.5 3.1-2.1 2-4 3.4-4.3 3.2-.2-.3 6.9-8.2 16-17.5s17.3-17.8 18.4-18.9c1-1.1 3.8-3.6 6.2-5.5l4.4-3.4-4.1 4.5c-2.3 2.6-4.7 5.6-5.4 6.8-.6 1.3-1.4 2-1.8 1.7-.7-.7-12.2 10.4-12.2 11.7 0 .5-1.6 2.7-3.5 4.8-1.9 2.2-3.5 4.4-3.5 5.1 0 1.5 1.3.3 31.3-30 13.2-13.3 24.7-24.2 25.4-24.2.7 0 1.7.9 2.3 2 1 1.8 0 3.2-7.7 11.2-4.8 5.1-10.3 10.5-12 12.1-1.8 1.6-3.1 3.3-2.8 3.7.3.4-.7 1.6-2.2 2.5-4.2 2.8-10.3 8.7-28.5 27.7-9.4 9.8-16.8 18.2-16.4 18.5.9.9 19.5-17.6 20.7-20.5.5-1.4 1.4-2 2.1-1.6 1.4.9 28.7-27.1 33-33.9 1.6-2.6 3.4-4.4 3.9-4.1 2.5 1.5 13-10.2 14.4-16.1.3-1.6.3-2.7 0-2.3-.4.4-1.4.1-2.2-.7-.8-.8-2.9-1.5-4.6-1.5-2.6.1-4.8 1.6-12.5 9-5.1 5-9.5 9-9.8 9-.2 0 3.3-4.3 7.7-9.5 10.5-12.1 15.3-14.1 20.6-8.2 1.5 1.6 1.9 3.1 1.6 5.9-.4 2.9-1.9 4.9-7.6 10.5-14 13.4-21.7 21.5-22.9 24.1-.7 1.5-2.4 3.2-3.7 3.8-3.4 1.7-19.8 18.1-29.1 29.1-4.3 5.1-17.5 18.5-29.3 29.8-12.7 12.2-21.4 21.3-21.3 22.3.1 1.4-.8 1.7-5.3 1.5-4-.2-6.2-.9-9-3-2-1.5-14.7-13.9-28.2-27.5-13.6-13.6-24.9-24.8-25.2-24.8-.4 0-11-10.4-23.8-23-22.5-22.4-28-27.3-26.5-23.5.7 2 0 1.6-7.6-4.5-3.2-2.6-2.3-1.3 3.6 5.2 4.4 4.8 8.3 8.6 8.8 8.5.5-.1 7.5 6.6 15.6 14.8 8.1 8.3 23 23.2 33.2 33.2 10.2 10 25 24.7 32.9 32.7 8 8 16.1 15.3 18 16.3 2 .9 6 1.7 8.9 1.7l5.4.1 18.1-18.5c10-10.2 21.5-21.4 25.5-25 4.1-3.5 8-7.6 8.7-9 .8-1.4 4.8-6.1 8.9-10.5 4.2-4.4 7.6-8.3 7.6-8.7 0-.4.7-.5 1.6-.1 1 .4 4.2-2.2 10.2-8.3 4.8-4.9 8.7-9.1 8.7-9.4 0-.3 6.7-7 14.8-15 16.9-16.5 17.8-18.3 15.2-27.7-3.7-12.9-16.4-16.1-26.3-6.7-3 2.8-3.2 3.3-1.2 2.3 3.1-1.4 2.9-1.3-4.5 4.6-8.1 6.4-16.9 14.9-21.7 21-2.2 2.7-7.1 8.4-11 12.5-3.8 4.1-7.3 7.8-7.7 8.2-2.6 3-14.1 12.8-14.9 12.8-.5 0-2.8 2.4-5 5.2-4 5.2-16.4 16.8-16.1 15.1.1-.4.1-5.1 0-10.3-.1-6.5-.4-9-1.1-8-.6 1-1-6.3-1-21.5v-23l2.5 5.3c2.8 6.1 3.2 13.4 1.3 24.2-1.3 7.4-1.2 13 .2 14.4.6.6 1 2.7 1 4.7 0 2.2.7 4.2 1.7 5 1.5 1.2 1.6 1.2.8-.1-.7-1.3-.6-1.3.7-.2 1.3 1 1.7 1 2.2-.3.3-.8 1.2-1.5 1.9-1.5 1.4 0 7.7-6.8 16.9-18.2 2.5-3.1 4.9-5.4 5.2-5 .4.3 12.6-11.5 27.1-26.3 14.5-14.8 26.3-27.1 26.1-27.3-.5-.4-13 10.7-13.4 11.9-.2.5-.8.9-1.3.9-2.8 0 8.8-12.3 14.2-15.1 7.4-3.7 18.2-1.7 25.4 4.7 2.2 1.9 3.3 3.2 2.5 2.8-.8-.4-2.4-1.5-3.5-2.5s-3.3-2.2-5-2.8c-2.8-1-2.9-1-1 .4 11.4 8.6 13.6 19.6 5.9 30.6-1.4 2.1-2.3 4.3-1.9 4.8 3.1 5.2 12.6-10.6 10.5-17.6-.4-1.5-.9-2.1-1-1.3-.3 1.5-1.9-6.6-2.2-10.5-.4-6.1-10.4-12.7-19.3-12.9-9.5-.1-13 2.6-46.1 35.2-18.2 17.9-32.5 32.9-36.1 37.8-3.3 4.5-6.5 7.9-7 7.5-.7-.4-1.2-8.9-1.5-22.4-.2-14.4-.7-22-1.4-22.5-.6-.4-1.4-5-1.8-10.2-.3-5.2-.8-11.5-1.1-14l-.4-4.5.9 4.9c1.5 8.2 2.5 7 2.8-3.5.2-5.7-.1-9.9-.6-9.9-.6 0-.8-2.9-.5-6.8.3-4.9.2-6.3-.6-5.2-.8 1.1-1.1.1-1.1-4.3 0-3.3.4-5.7 1.1-5.7.7 0 .9-5.8.8-17.8-.1-9.7-.2-22.7-.2-28.7 0-6.1 0-33.3-.1-60.5-.2-48.3-.6-55-3.4-55-.4 0-1.8-1.3-3-3-1.9-2.5-1.9-2.8-.5-2.3s1.2 0-.7-2.4c-2.9-3.7-5.6-5.2-4.6-2.7.5 1.2.2 1.5-1.1.9-3.6-1.5-8.9-2.4-10.8-1.9-11.3 2.8-12.5 3.6-15.4 10.4-2 4.5-2.1 6.3-1.7 26.7.5 28.2.7 59.7.4 64.8-.4 8.1.7 40.5 1.5 40.5.4 0 .7 1.4.7 3.1 0 2.5-.2 2.8-1.3 1.7-.7-.7-1.7-2.4-2.3-3.8-2.1-4.7-6.8-9.3-11.9-11.6-4.7-2.2-6.2-2.4-23.5-2.4-18.4.1-88.6 4.3-89.7 5.4-.6.6 2.6.8 16.7 1 4.1.1 15.8.3 26 .5l18.5.4-13.5.8c-16.3.8-79.1 0-84-1.1-2.4-.6-1.1-.7 4.5-.5l8 .4-9-1.3c-16.1-2.5-32.3-9.6-45.5-19.9-4.8-3.8-6.1-4.5-4.8-2.5 2 3 .7 3.2-3.4.4-1.5-1-2.5-2.2-2.2-2.7.3-.5-1.7-3.5-4.4-6.7-13.4-15.5-20.9-33.4-23.3-55.2-1-9.4.1-27.4 1.3-22 .8 3.4 2.6 14.5 4.3 26.5 1.7 11.9 7 28 12.7 38.5 4.1 7.5 12.1 17 14.5 17 .6 0 4.7 2.5 9 5.6 8 5.8 20.5 12.4 23.4 12.4.9 0 3.6.9 6 1.9 2.4 1.1 7.6 2.4 11.4 2.9 10.8 1.6 32.8 2.5 38.2 1.6l4.8-.8-5-.7c-2.7-.4-11.1-.8-18.5-.8-29.9-.2-49.5-8.1-68.6-27.5-13.8-14-21.2-28-25.3-47.7-2.1-10-3.5-23.2-3.3-31.4.3-13.2 14.4-43.9 24.3-53 2.3-2.1 1.8-1.1-1.9 3.5-5.4 6.8-9.5 13.7-10.6 18-.4 1.5.2.9 1.5-1.5 3.1-5.7 13.8-17.5 21.4-23.5 3.6-2.9 6.3-5.5 6-5.9-.2-.5.7-1.3 2.1-2 1.4-.6 2.3-1.5 1.9-2-.3-.5 0-1.3.6-1.7.8-.4.9-.3.5.4-1.1 1.8.1 1.5 7.1-1.8 3.4-1.7 6.7-3 7.3-3 1.7 0 5.9-2.3 5.5-3-1.1-1.8 11.9-3.3 28.2-3.1 18.7.2 20.7-.2 26.6-5.8 4.6-4.2 6-8 6.9-18.1 2-24.5 3.2-32.9 4.9-34 .4-.3 2.4-5 4.4-10.5 5.5-15.3 7.9-19 26.8-42.3 10.8-13.3 33.3-28.3 50.7-34 18-5.9 45.7-8.6 63.5-6.3 4.9.7 9.2 1.6 9.5 1.9.9 1.2 22.4 7.6 25.3 7.5 1.6 0 2.3.3 1.7.7-1.4.8 1.4 2.9 10.3 7.9 3.2 1.7 6.3 2.9 6.9 2.5.6-.4.8-.3.4.4-.4.6 1.4 2.5 4.1 4.3 2.7 1.8 8.2 6.1 12.4 9.5 4.2 3.5 7.9 6.1 8.1 5.9.2-.3 2.4 1.6 4.8 4 4.3 4.4 4.7 6.3.7 2.7-2.3-1.9-1.9-1.2 2.5 5.4 1.5 2.3 2.8 4.6 2.8 5.2 0 .5.8 1.6 1.7 2.3 1.5 1.2 1.6 1.2 1-.4-1.1-3.1.1-1.8 2.8 2.7 3.7 6.3 9.7 21.5 10.1 25.6.2 1.9 1.2 7.3 2.4 12 1.1 4.7 2.5 13.7 3 20 1.3 14 2.4 18.5 5.7 22.8 4.5 6 9.2 7.6 23.3 7.8 18.7.2 43.8 6 54.8 12.7 10.4 6.2 34.4 30.9 32.7 33.7-.3.5.3 1.3 1.3 1.9 2.6 1.4 8.1 13.8 9.2 20.8 4.4 27.1 2.3 47.9-6.5 65.3-1.9 3.8-3.5 7.5-3.5 8.1 0 1.6-8.9 13.9-10.5 14.6-.8.2-3.2 2.9-5.4 5.8s-5.5 6.3-7.3 7.6c-1.8 1.2-2.7 1.6-2 .9 2.8-3.2.9-2.8-3.5.5-5.5 4.2-18.3 10.5-26.3 13-13.9 4.2-21.9 4.7-85.5 5.1-53 .3-60.6.2-58-1l3-1.4-4.8-.1c-14.8-.3-24.6 8.4-24.7 21.6 0 8.7 3.4 14.4 11.2 18.4 3.3 1.7 6.7 1.9 44 2 22.1.1 45.7-.2 52.3-.8 11.8-.9 17.7-.6 12.5.8-5.1 1.3 34.9-.2 44.5-1.7 7.7-1.3 13.1-2.9 24-7.6 7.7-3.2 15.4-6.8 17.1-7.9 1.7-1 3.8-1.9 4.5-1.9 3.1 0 12.8-7.9 25.8-20.9 19.2-19 20.1-20.4 28.4-40.6 7.8-19.2 9.9-27.2 11.3-44.2.8-9.5-.6-28.6-1.6-21.8-.5 3.5-.6 2.9-1.3-4-.4-4.4-1.4-10.9-2.2-14.4-1.7-7.2-1.3-9.5.6-3.2.7 2.3 1.4 3.9 1.7 3.6 1-1-8.4-24.2-13-31.8-2.7-4.5-5.4-8.7-6-9.2-1.5-1.5 7.2 15.6 8.8 17.2 1.5 1.5 1.5 1.6 1.9 4.8.1 1.1 1.4 6.7 2.9 12.5 3.7 15.2 4.7 22.9 4.9 39.1.2 12.1-.2 15.9-2.1 23.4-6.5 26.1-14.4 42.3-28.6 58.5-2.9 3.4-5.6 6-5.9 5.9-.3-.2-2.3 1.2-4.4 3.1-2.1 1.9-.8.3 2.8-3.5 19.1-20.5 30.2-41.8 34.3-65.6 1.8-10.4 3-28.6 1.7-24.9-.7 1.7-.8-.3-.5-6.4.4-9.9-.4-17.5-1.7-15.4-.6.9-.9.7-.9-.9 0-1.2-.6-2.8-1.3-3.5-.8-.7-1.2-1.9-.9-2.6.6-1.9-3.5-12.6-8-21-2.2-3.9-3.7-7.2-3.4-7.2.3 0 1.7 2.1 3 4.7 1.4 2.7 2.5 4.2 2.6 3.5.1-2.7-7.1-15.1-14.3-24.7-8.8-11.8-23.1-25.9-25.4-25.1-.8.3-2.4-.1-3.6-.9-5.1-3.6-3.1-1 4 5.3 4.3 3.8 10.2 9.5 13.2 12.8 4 4.4 5.2 5.2 4.7 3.4l-.7-2.5 2 2.5c1.9 2.2 9.4 13.2 11.6 16.9.6 1.1.4 1.3-.9.8-1-.4-1.6-.4-1.4 0 .1.5 2 4.3 4.1 8.5 6.6 13.5 12.7 35.4 12.7 45.8 0 2.2.5 4.2 1.1 4.6.8.4.9-1.9.6-8.2-.4-7-.4-7.7.3-3.4 1.8 12.4.5 30.7-2.5 33.7-.8.8-1.5 2.4-1.5 3.6-.1 4.8-3.1 16-6.3 23.4-4.2 9.8-13.8 23.5-23.5 33.5-4 4.2-7.3 8-7.1 8.5.3 1-12.5 11.9-16.3 13.9-1.6.8-2.8 1-2.8.5 0-.6 1-1.6 2.3-2.2 3.8-2 16.9-12 16.3-12.6-.2-.3-3.7 2-7.7 5.2-4 3.1-8.6 6.3-10.1 7.1-1.7.9-2.6 2-2.2 2.6.5.7.3.8-.5.3-.7-.4-2.2.1-3.4 1.3-2.8 2.5-8.3 5.3-9 4.6-.3-.4-4.1.5-8.4 1.9-4.3 1.4-9.7 3.1-12.1 3.7-2.3.6-4 1.5-3.7 1.9.3.5-.3 1.2-1.3 1.7-2.3 1-96.5 1.6-126 .8-25-.7-26.2-.9-26.2-6 0-1.3 1-3.4 2.1-4.5 2.1-2.1 2.8-2.1 27.3-1.9 27.3.3 94.6-.6 106.6-1.4l7.5-.5-6.5 1.3c-4.6 1-5.5 1.4-3.3 1.5 7.1.2 21.6-3.9 19.8-5.7-.3-.3 3.1-1.6 7.5-2.9 4.5-1.3 10.3-3.4 13-4.8 2.8-1.4 5-2.3 5-2 0 .3-3.6 2.3-7.9 4.5-9 4.5-11.1 6.4-5.4 4.8 7.1-1.9 20.2-9.1 28.2-15.4 9.3-7.3 23.8-24.2 28.2-32.7 1.7-3.3 2.5-5.6 2-5.2-1.6.9-1.4.3 2.4-7.6 1.9-4 3.8-8.8 4.1-10.6.3-1.8 1.1-3.3 1.6-3.3s.7-1 .4-2.3c-.4-1.5-.2-1.3.8.7l1.3 2.8 1.2-5.8c1.9-8.8 2.6-31.9 1.2-41.5-.7-4.5-2.6-12.2-4.2-17.1-3.2-10-9.9-23.9-11-23.2-.4.2-1.7-1.7-3-4.3-2.4-5.3-17.3-20.7-21-21.8-2.5-.8-12.6-8.5-11.2-8.5.4 0 0-.5-1-1.1-.9-.5-2.2-.7-2.9-.3-.6.4-.8.3-.4-.4.6-1-1.5-2.2-15.7-8.6-8.8-4.1-25.9-7.5-41.4-8.2-11.1-.6-13.5-.5-12.8.6.5.9.4 1.1-.4.6-.6-.4-1-1-.7-1.4.9-1.7-1.6-14.7-4.8-25-3.6-11.2-4.8-17.4-2-9.8 2 5.4 2.8 5.9 1.9 1.1-.4-2.2-.8-5.4-1-7.1-.1-1.7-.8-4-1.4-5.1-.5-1.1-.8-2.3-.6-2.5 1.2-1.2-8.5-21.9-9.8-21.1-.6.3-.7.1-.3-.5 1-1.6-2.3-7.6-8.8-16-3.1-4-5.6-7.9-5.6-8.8 0-2-20.6-22.8-21.8-22-.5.3-3.9-1.6-7.4-4.3-3.6-2.7-8.8-6.3-11.6-8.1-2.9-1.7-5.2-3.4-5.2-3.6 0-.3.6-.2 1.3.2.9.5.9.4 0-.6-.6-.7-2.3-1.4-3.7-1.5-1.4-.2-4.1-1.2-5.9-2.4-5.7-3.5-22.8-9.8-31.2-11.5-18-3.6-42.9-3.7-60-.1-9.6 2-30.1 8.8-36.8 12.2-22.9 11.5-38.9 26.7-57.1 54.3-4.1 6.3-8.1 12.1-8.7 12.9-2.2 2.5-6.9 12.4-6.9 14.5 0 2.5-3.4 13.8-5.5 18.2-1.8 3.9-3.4 14.5-3.9 26.1-.2 5-.7 9.6-1.1 10.3-.5.8-3.2.9-9.4.5-13.7-1.1-33.8 1.6-41.1 5.5-1.2.6-3.3 1.4-4.7 1.6-1.4.3-4.3 1.4-6.5 2.5-4.8 2.4-13.2 8.5-10.3 7.4 1.1-.4 2.7-.8 3.5-.9.8 0 1.7-.4 2-.7 1.4-1.6 9.8-5.8 10.4-5.2.4.4 1.1.1 1.5-.6.5-.7 1.9-1.5 3.2-1.7 1.3-.1 6-1.2 10.4-2.3 4.4-1.1 10.7-2 14-2l6 .2-7 .8c-7.2.8-19.2 3.6-21 4.9-2.3 1.7-19.1 8.4-20.8 8.3-1-.1-1.5.3-1.1.9.4.6.3.8-.4.4-1.3-.7-9.9 4.1-16 9.1-2.3 1.9-7.5 7.4-11.4 12.1-3.9 4.8-7.8 9.4-8.6 10.2-1.3 1.3-1.3 1.2-.2-.9 2.2-4.3-.8-1.2-3.5 3.7-6 10.7-11.4 24.7-12.1 31.4-.4 3.7-1 6.5-1.4 6.3-2.3-1.4-3.1 24.9-1.1 35 .6 3.3 1.3 7.8 1.5 10 .3 2.2 2.1 7.8 4.1 12.5 2 4.7 4.3 10.4 5.2 12.8.8 2.3 1.9 4 2.4 3.6.5-.3.6.3.2 1.2-.4 1.1-.2 1.5.4 1.1.6-.4 1 .1.9 1.1 0 .9.5 1.6 1.2 1.4.8-.1 1.1.2.7.8-.8 1.2 1.3 5.2 2.4 4.5.5-.2 1.5.3 2.2 1.3 1.3 1.5 1.2 1.6-.4.3-2.3-1.8-2.1-.6.5 3.2 3.2 4.6 14.9 16.7 16.2 16.7.6 0-1.7-2.8-5-6.3-7-7.3-11.6-12.6-9.3-10.9.9.6 1.8 1 2.1.7.2-.2 2.4 1.7 4.9 4.3 3.5 3.7 3.6 4 .6 1.2-2-1.8-3.7-2.9-3.7-2.3 0 1.3 13 13.3 14.4 13.3.5 0-.1-1.2-1.5-2.7l-2.4-2.8 2.5 2.1c1.4 1.2 5.2 3.9 8.5 6.1 5.5 3.7 8.1 5.2 20.9 12 2.2 1.2 5.6 2.5 7.4 2.9 1.8.3 3.5 1 3.7 1.4.7 1.1-4.4-.4-12.5-3.6-11.4-4.6-13-5.3-13-6.4 0-.6-.5-.8-1.2-.4s-.8.3-.4-.4c.8-1.4-3-3.6-4.6-2.6-.6.4-.8.3-.5-.3.5-.8-4.3-5.3-5.7-5.3-.2 0 .2 1.3 1 2.9 2.7 5.3 24 17.7 32 18.5 2.2.3 6.8 1.1 10.4 2 14 3.2 28.2 4 56.5 2.9 16.1-.6 35.4-.6 47.9-.1 11.5.4 21.2.6 21.4.3.3-.3-2.1-.5-5.4-.6-3.2 0-6.8-.4-7.9-.9-1.3-.6 2.4-1 10.5-1.1l12.5-.3-9.5-.6c-8.9-.6-8.4-.6 6.1-.8 15-.2 15.6-.1 17.7 2 2.3 2.6 3.6 6.8 2.5 8.3-.5.5-1.7 1.7-2.8 2.5-1.9 1.4-2 1.4-.2-.6 2.5-3 2.1-5.9-1-8.4-2.5-2-3.6-2.1-9.8-1.6-10.1.9-10.7 2.6-.8 2.6 6 0 8.4.4 9.3 1.5 1 1.1 1 1.9.2 2.7-.7.7-21.4 1.1-67.9 1.2-59.4.1-67.8-.1-75.9-1.6-22.2-4.2-42.6-14.3-59.3-29.4-5.8-5.2-17.4-19.1-19.7-23.6-.8-1.6-1.9-2.6-2.4-2.3-.5.3-1.2 0-1.6-.6-.4-.8-.3-.9.4-.5 1.9 1.2 1.4-.2-2.8-7.1-2.2-3.7-4.3-8.2-4.6-10.2-.4-2-1-4.1-1.4-4.6-.5-.6-1.5-3.7-2.4-7-1-3.3-2.2-6.9-2.8-8-1.7-3-1.2-34.2.7-44.2 5.7-30.5 22.9-57.2 49.3-76.2 3.9-2.9 7.2-5.4 7.2-5.5 0-.2-1.1-.1-2.4.1-3.5.7-18.3 12.2-25.2 19.5-8.1 8.7-15.3 19-17.5 25.2-1.1 2.8-2.4 5.3-2.9 5.4-.6.2-.7.9-.4 1.4.4.7.2.8-.4.4-2-1.2-7.3 13-10.3 27.9-2.1 10.2-2.7 27-1.3 38.5 1 8.5-.4 5.4-1.7-3.6-1.6-11.9-2.2-22.6-1.2-23.3.5-.3 1.7-4.7 2.6-9.7.9-5 2.6-12 3.8-15.5 7.5-23.2 27.5-51.3 46.6-65.1 7.8-5.7 20.6-12 32.3-15.8 9-2.9 28.5-6 38.2-6h4.8v-4.3c.1-10.8 6.3-34.5 13-49.9 2.3-5.1 4.4-9.9 4.7-10.7.5-1 .2-1.2-.7-.6-.9.5-1.1.4-.6-.4.4-.6 1.2-.9 1.7-.6.5.4.9-.6.9-2.1 0-2.4 3.5-9.4 4.6-9.4.3 0 .2.4-.1 1-.3.5-.4 1-.2 1 .3 0 3.6-4.4 7.3-9.7 15-21.2 35.7-39.1 57.7-50.1 13.7-6.8 21.5-9.6 33.2-11.8 21-3.9 27.9-4.5 46.5-4.1 16.8.4 19.5.8 29.4 3.6 6 1.7 11.2 2.8 11.7 2.6 1.2-.8 13.6 4.2 23.9 9.6 11.5 6.2 19.2 11.2 28.7 19 3.9 3.3 7.6 5.9 8.1 5.9 1.6 0 20 22.2 26.5 31.8 6.4 9.7 14 24.7 18.3 36.4 1.6 4.3 3.3 7.8 3.7 7.8.5 0 .6-1 .2-2.3-.5-1.8-.4-1.9.4-.6.6.9 2.1 6.1 3.5 11.5 1.3 5.5 2.9 11.7 3.5 13.9 1 3.8 1 3.8.5-1.5-.7-6-2.6-14.8-4.9-22.3-.8-2.7-1.4-5.2-1.4-5.5.4-2.3-.2-4.2-1.1-3.7-.6.3-.7-.1-.4-.9.3-.9.1-1.6-.5-1.6s-.8-.7-.4-1.7c.5-1.2.3-1.4-.7-.8-.9.5-1.1.4-.6-.4.9-1.5-.3-5.3-1.5-4.6-.5.3-.6-.2-.2-1.1.4-1.2.3-1.5-.5-1-.8.4-1 .2-.6-.8.6-1.6-1.4-6.1-2.3-5.2-.3.3-3.5-4.5-7.1-10.7-9.3-16-10.6-17.8-20.7-28.5-4.9-5.3-8.4-9.2-7.7-8.8 2.9 1.8.7-.5-6.5-6.6-26.8-22.5-59.5-35.8-96-38.8-13.1-1.1-16.9-1.1-29.3 0zm35.1 21.5c2.1.8 5.5 1.4 7.6 1.4 2.1 0 5.8.7 8.3 1.5 4 1.3 4.1 1.5 1 1-1.9-.3-4.3-.8-5.4-1.1-1-.3-1.6-.1-1.3.4.3.5-2.2.3-5.6-.4-14.5-3.2-43.6-2.1-59.7 2.2-3 .8-5.9 1.5-6.5 1.4-1.6 0 8.5-3.8 13.5-5.1 11-2.7 41.7-3.5 48.1-1.3zM356.5 84c-3.1 1.1-18.4 2-16 .9 1.4-.7.8-.7-2-.3-2.2.3-3.6.2-3.2-.3 1.1-1 12.7-1.9 18.7-1.4 3.3.3 4 .5 2.5 1.1zm42.8-.3c-.7.2-1.9.2-2.5 0-.7-.3-.2-.5 1.2-.5s1.9.2 1.3.5zm-99.7 1.8c1.6 1.3 1.6 1.4.2.9-1.1-.4-1.8-.1-1.8.6 0 .6-.4.9-.9.6-.5-.4-1.1-.2-1.3.2-.1.5-3.4 2.3-7.2 4-3.8 1.8-10 5.3-13.8 7.8-3.8 2.6-7.1 4.4-7.4 4.1-.7-.7 12.8-10.2 18.9-13.3 2.6-1.3 4.7-2.8 4.7-3.3s1.2-1.4 2.8-1.9c3.7-1.4 3.6-1.4 5.8.3zm3.9-.5c.3.6-.1.7-.9.4-1.8-.7-2.1-1.4-.7-1.4.6 0 1.3.4 1.6 1zm96.1 1.6c1.8 1.4 1.8 1.4-.6.3-3.1-1.4-3.6-1.9-2.4-1.9.6 0 1.9.7 3 1.6zm-72.1.1c-7.7 1.8-9.6 2-10.2 1-.3-.5-.2-.8.3-.5.5.3 1.8.2 2.9-.3 1.1-.4 3.6-.7 5.5-.7 2 0 2.6.2 1.5.5zm42 1.4c14.6 2 19.2 3.1 17 4-1.1.4-1.4.8-.6.8.8.1 1.2.4.9.7-.3.3-2.1-.1-4-.9-4.6-1.9-14.9-3.6-27.9-4.6l-10.4-.8 8.5-.2c4.7 0 12.1.4 16.5 1zm21.2 6.5c-.3.3-1.2.4-1.9.1-.8-.3-.5-.6.6-.6 1.1-.1 1.7.2 1.3.5zm-99.1 4.5c-4.3 2.2-11.9 6.5-16.8 9.5-4.9 2.9-9.1 5.4-9.4 5.4-3 0 16.1-12.5 24.6-16.2 9.7-4.1 10.6-3.4 1.6 1.3zM396 96c1.8 1.2.2 1.2-2.5 0-1.3-.6-1.5-.9-.5-.9.8 0 2.2.4 3 .9zm-130 4.4c0 .2-.8 1-1.7 1.7-1.6 1.3-1.7 1.2-.4-.4 1.3-1.6 2.1-2.1 2.1-1.3zm154.8 7.9c.7.5 1 1.2.8 1.4-.6.7-13.6-7-13.6-8 0-.8 9.8 4.3 12.8 6.6zm23.8 1.7c.3 0 .2-.5-.1-1-1.1-1.8.1-1.1 2.1 1.2 1.5 1.9 1.6 2 .2.9-3-2.2-2 .1 1.4 3.6 6.2 6.4 1.2 3.1-6.7-4.4-7.3-7-7.6-7.3-2.7-4 2.8 2.1 5.5 3.7 5.8 3.7zm-5.8 4.2c.9 1.3-.9.1-4.1-2.6-3.1-2.7-5.7-5.1-5.7-5.3 0-1 8.3 5.7 9.8 7.9zm15.1 14.5c4.4 4.7 7.8 9.1 7.4 9.6-.3.5-1.9-.8-3.6-3-1.8-2.1-5.6-6.4-8.6-9.6-3-3.1-4.9-5.7-4.3-5.7.6 0 4.7 3.9 9.1 8.7zm-205.6 3c-2.8 3.2-5.8 7.1-6.8 8.7-1.1 1.6-2.1 2.4-2.3 1.7-.7-2.1 11-16.1 13.5-16.1.3 0-1.7 2.6-4.4 5.7zm216.3 9.5c.3.4-.1.5-1 .4-.8-.1-1.8-.5-2.2-.8-.3-.4.1-.5 1-.4.8.1 1.8.5 2.2.8zm6.9 11c9.7 16 16.3 36.4 17.5 53.8.5 6.3.9 13.2.9 15.3.1 2.8.9 4.6 3.5 7.5l3.4 3.7 12.4.6 12.3.6-13.7-.1c-16.6-.1-16.1 1.6.7 2.5l11 .5-10.5.2c-8.3.1-11.3-.2-14.5-1.7-6.7-3.1-7.8-4.9-8.1-14.8-.2-6.3-.1-8.1.6-6.3 1.3 3.6.1-10.8-1.6-19.3-2.2-10.8-6-21.2-12.2-33.7-3.1-6.3-5.7-12-5.7-12.5-.2-2-1.7-4.5-2.5-4-.5.3-1.1.1-1.4-.4-.4-.5.2-.8 1.1-.7.9.2 4 4.1 6.8 8.8zm-258.2 50c-.6 10-2.1 16.2-2.2 9.6-.1-4 1.9-18.8 2.5-18.8.2 0 .1 4.2-.3 9.2zm269.8 8.6c-.1 12.1-1.1 15.2-1.2 4.1 0-4.1-.2-9.7-.2-12.6-.1-3.4.1-4.6.7-3.6.5.9.8 6.3.7 12.1zm-277.3 4.3c-.4 12.4-1.1 13-14.2 12.7l-10.1-.2 9.7-.3c8-.3 9.9-.7 10.7-2.1.4-.9 1.1-6.4 1.5-12.1 1.2-17.2 3.1-15.5 2.4 2zm279.9-6.4c-.3 1-.5.4-.5-1.2 0-1.7.2-2.4.5-1.8.2.7.2 2.1 0 3zm-275 13.5c-.3.7-.5.2-.5-1.2s.2-1.9.5-1.3c.2.7.2 1.9 0 2.5zm274 0c-.3.8-.6.5-.6-.6-.1-1.1.2-1.7.5-1.3.3.3.4 1.2.1 1.9zm12.7 3.7l2.1 2.4-2.1-1.1c-2.2-1.1-3.5-3.3-3.3-5.5 0-.7.3-.5.6.3s1.5 2.6 2.7 3.9zm7.9.8c-.7.2-2.1.2-3 0-1-.3-.4-.5 1.2-.5 1.7 0 2.4.2 1.8.5zm20 1c-.7.2-2.1.2-3 0-1-.3-.4-.5 1.2-.5 1.7 0 2.4.2 1.8.5zm7.9 7.4c11 2.2 22.7 6.4 24.1 8.6.4.7 1.3 1.3 2 1.3s.6-.4-.3-1c-2.9-1.9.1-1 5 1.5 2.7 1.3 5.2 3 5.6 3.6.3.6-1.3 0-3.8-1.5-4.9-2.8-5.8-3.1-5.8-1.6 0 .5 2.4 2.2 5.3 3.6 17.3 8.8 34.1 25.2 42.1 41.1 4.4 8.8 8.7 23.3 9.1 30.8.2 3.8.2 5.9-.1 4.5-.2-1.4-.9-5.2-1.5-8.5-1.1-6.8-4.7-18.5-6-19.9-1.2-1.3-1.1-1 .6 4.8.8 2.7 1.4 5.1 1.2 5.2-.1.2-2.1-4-4.4-9.2-2.3-5.2-3.5-9-2.7-8.3 2.7 2.2 1.5-1.1-1.3-4-1.6-1.5-3.7-4.5-4.8-6.5-2.6-4.9-12.3-14.8-20.8-21.2-7.4-5.6-21.6-13.4-29.9-16.5-2.9-1-4.1-1.7-2.5-1.4 1.5.3 2.7.3 2.7 0 0-.6-8.9-3.2-17.2-5-3.4-.7-5.3-1.4-4.1-1.4 1.2-.1 4.6.4 7.5 1zm56.8 21.4c1.9 1.9 3.2 3.5 2.9 3.5-.3 0-2-1.6-3.9-3.5s-3.2-3.5-2.9-3.5c.3 0 2 1.6 3.9 3.5zm7.1 8.2c1.3 1.6 1.2 1.7-.3.4-1-.7-1.8-1.5-1.8-1.7 0-.8.8-.3 2.1 1.3zm3 4c1.3 1.6 1.2 1.7-.3.4-1-.7-1.8-1.5-1.8-1.7 0-.8.8-.3 2.1 1.3zm16.8 29.3c0 1-.3.8-.9-.5-1.2-2.7-1.2-4.3 0-2.5.5.8.9 2.2.9 3zM355 303c1.2 1.1 2.6 1.7 3 1.5 1.5-.9 5 4.7 4.9 7.9l-.1 3.1-.9-3.2c-1.3-4.6-6.2-8.3-10.9-8.3-6 0-9 1.9-11.1 6.8-1.7 3.8-1.9 7.3-2 28-.1 13-.5 21.9-.8 19.7-.3-2.3-.9-3.5-1.3-2.9-.4.7-.1 6.3.7 12.5.8 6.2 1.4 15.8 1.3 21.3-.1 9.5-.2 9.7-.8 3.6-.5-5.3-.8-6.1-1.5-4.3-.7 1.5-1.1-4.4-1.2-18.8-.1-11.5.2-20.7.6-20.5 1.1.7 2.1-6.8 2.1-15 0-8.4-1.9-9.5-2.2-1.2l-.1 6.3-.6-8c-.3-4.4-.3-10.3 0-13 .4-3.6.7-4.1.9-2 .2 2.6.4 2.3 1.5-2.1 1.5-6.4 3.8-9.8 7.8-11.8 4.3-2.1 7.9-2 10.7.4zm266.6 9.1c.7 3 1.3 7.2 1.3 9.4-.1 3-.5 1.9-1.9-5-2.1-10.1-2.2-11.1-1.4-10.3.3.3 1.2 3 2 5.9zM332.5 315c-.4 2.3-.9 3.9-1.2 3.6-.3-.2-.2-2.3.2-4.6s.9-3.9 1.2-3.6c.3.2.2 2.3-.2 4.6zm305.2-.8c-.3.7-.5.2-.5-1.2s.2-1.9.5-1.3c.2.7.2 1.9 0 2.5zM358 317.5c0 1.9-.4 3.5-1 3.5-1.1 0-1.3-3-.4-5.4 1-2.5 1.4-1.9 1.4 1.9zm4.7 4.2c-.3 1-.5.4-.5-1.2 0-1.7.2-2.4.5-1.8.2.7.2 2.1 0 3zm-18.1 6.8c.7 1.9.7 1.9-.9.3-1-.9-1.7-3.1-1.6-5l.1-3.3.8 3c.4 1.6 1.1 3.9 1.6 5zm24.5 3l-.9 4-.1-4.2c-.1-2.3.2-5 .6-6 .7-1.7.8-1.7 1.1.2.1 1.1-.1 3.8-.7 6zM78.3 346.8c.3 3.6.1 5-.6 4.3-.6-.6-1.2-5.9-1.3-11.8-.3-9.7-.2-10.1.6-4.3.4 3.6 1 8.9 1.3 11.8zm280.4-11.6c-.3.8-.6.5-.6-.6-.1-1.1.2-1.7.5-1.3.3.3.4 1.2.1 1.9zm-3 3c-.3.8-.6.5-.6-.6-.1-1.1.2-1.7.5-1.3.3.3.4 1.2.1 1.9zm13 1c-.3.8-.6.5-.6-.6-.1-1.1.2-1.7.5-1.3.3.3.4 1.2.1 1.9zm-10 1c-.3.8-.6.5-.6-.6-.1-1.1.2-1.7.5-1.3.3.3.4 1.2.1 1.9zm-.8 11.9c.5 5.8.4 9.9-.2 10.7-.9 1.2-.4 19 .9 27.9.4 2.6.2 4.3-.4 4.3-1.6 0-2.5-10.8-2.6-30.5-.2-17.1.1-23.1 1.1-22.2.2.3.8 4.7 1.2 9.8zm11.1-3.4c0 3.2-.5 6.5-1 7.3-.6 1-.9-.1-.8-3.5.1-2.8-.2-6-.6-7.3-.6-1.6-.3-2.2.8-2.2 1.3 0 1.6 1.2 1.6 5.7zm246.7 3c-.8 7.2-3.1 16-5.8 22.4-3 7-3.3 5.6-.4-1.7 1.3-3.3 3.2-10.6 4.1-16.2 1.9-11.1 3.1-13.7 2.1-4.5zm5 5.5c-.3.8-.6.5-.6-.6-.1-1.1.2-1.7.5-1.3.3.3.4 1.2.1 1.9zm-254.9 11.2c-.1 5.5-.4 8.1-.8 6.6-.4-1.4-.5-4.5-.3-7 .4-3.4.2-4.1-.6-3-.8 1.1-1.1.2-1.1-4 .1-5 .2-5.3 1.5-3.6 1.1 1.4 1.4 4.4 1.3 11zm-299-4.9c0 1.6-.2 1.5-.8-.5-.4-1.4-.8-3.4-.8-4.5 0-1.6.2-1.5.8.5.4 1.4.8 3.4.8 4.5zm6 15.5c2 4.1 4.7 9 5.9 10.9 1.3 1.9 2.1 4.1 1.8 5-1.7 5.5 23.2 32.5 39.9 43.3 3.3 2.1 6.1 4.5 6.2 5.3.1.8-.4 1.1-1.2.8-.8-.3-1.3-.8-1-1 .2-.3-3-2.8-7.3-5.6-13.9-9.4-25.4-20.9-35.2-35.2-3.4-5.1-13.9-29.8-13.8-32.5.1-1.3.1-1.3.6 0 .3.8 2.1 4.9 4.1 9zm270.9 14.2c-.1 4-.3.8-.3-7.2s.2-11.2.3-7.3c.2 4 .2 10.6 0 14.5zm21.4 5.6c-1.3 2.1-1.5-8.7-.3-13.9.6-2.7.8-1.9 1 4.4.2 4.2-.2 8.5-.7 9.5zm-10.4-3.6c-.2 1.3-.4.3-.4-2.2s.2-3.5.4-2.3c.2 1.3.2 3.3 0 4.5zm241.9 1.5c-2.4 3.2-7 8.3-10.3 11.3l-5.8 5.5 4.6-5c2.5-2.8 6.9-7.8 9.8-11.3 6.6-7.8 7.7-8.1 1.7-.5zM366 411.2c0 3.1-.3 3.9-1.1 3.1-.7-.7-.8-2.4-.4-4.2.9-4.3 1.5-3.9 1.5 1.1zm-29.3 3.5c-.2 1.6-.4.5-.4-2.2 0-2.8.2-4 .4-2.8.2 1.3.2 3.5 0 5zm255.3-4.4c0 .2-1 1.2-2.2 2.3l-2.3 1.9 1.9-2.3c1.8-2.1 2.6-2.7 2.6-1.9zm-446.5 16.5c-.4.5-9.6-4.3-12-6.2-1.1-.9 1.2.1 5.2 2.1 3.9 2.1 7 3.9 6.8 4.1zm398.2 1.8c-.3.3-1.2.4-1.9.1-.8-.3-.5-.6.6-.6 1.1-.1 1.7.2 1.3.5zm-207 9.6c-.2 1.8-.4.6-.4-2.7 0-3.3.2-4.8.4-3.3s.2 4.2 0 6zm-27.1-6.3c-1.5.6-1.1.9 2.2 1.9 4.9 1.5 9.7 6.6 11.3 12.3 1.6 5.2-.1 12.2-3.9 16.2s-5.5 4.7-8.8 3.8l-2.9-.7 3.2-.7c4.3-.9 10-6.8 10.9-11.3.9-4.9-1.1-10.9-4.4-13.2-5.5-3.8-9.3-4.5-29.7-4.9-11-.3-20.7-.9-21.5-1.4-1.2-.6-.9-.9 1-1 31.5-1.8 45.5-2.1 42.6-1zm220.4 2.8c.3.3-.8.4-2.5.2-1.6-.1-4.1.1-5.5.4-1.4.3-10.1.8-19.5 1-11.8.3-15 .2-10.5-.4 3.6-.4 11.3-.9 17.2-1 5.9-.1 11.3-.6 12-1.1 1.2-.7 7.7-.1 8.8.9zM427.4 436c8.8.6 16.1 1.2 16.3 1.4.3.2-11.6.3-26.4.3l-26.8-.2-5 2.9c-2.7 1.6-4.4 2.3-3.8 1.4.7-.8 1.1-1.7.8-2-.3-.3.4-1.3 1.6-2.4 1.6-1.5 4.2-2 11.2-2.5 5.1-.4 10.8-.4 12.7-.2 1.9.2 10.7.8 19.4 1.3zm-104.9 2.6c.9 1.5 1.2 2.3.6 2-1.1-.7-3.5-4.6-2.8-4.6.3 0 1.2 1.2 2.2 2.6zm40.5 10.5c-.6 2.6-.8 1.5-.8-4.6 0-7.1.1-7.5.8-3.4.4 2.6.4 6.2 0 8zm100.7-11.5c-.3.3-1.2.4-1.9.1-.8-.3-.5-.6.6-.6 1.1-.1 1.7.2 1.3.5zm70 4c-.3.3-1.2.4-1.9.1-.8-.3-.5-.6.6-.6 1.1-.1 1.7.2 1.3.5zm-364.4 1.1c-.7.2-1.9.2-2.5 0-.7-.3-.2-.5 1.2-.5s1.9.2 1.3.5zm156.6 3.3c0 1-.3.8-.9-.5-1.2-2.7-1.2-4.3 0-2.5.5.8.9 2.2.9 3zm-112.4-1.9c-4.8 1-19.5.9-32.5-.1-7.4-.5-4.4-.7 13.5-.7 14.6-.1 21.5.2 19 .8zm58.5-.1c-2 1.3-21.7 1.3-22.5 0-.4-.6 3.7-1 11.7-1 8.3 0 11.8.3 10.8 1zm-128.5 6.1c3.4 1.5 13.6 3.9 23.5 5.4 6.7 1.1 19.4 1.5 43 1.6 31.9.2 32.7.2 17.5 1.1-8.8.5-26.6.7-39.5.5-23.9-.5-25.4-.7-42-5.6-7.1-2.2-16.1-6.4-14.9-7.2 1-.6 5 .8 12.4 4.2zm78.2-4.5c-.3.3-1.2.4-1.9.1-.8-.3-.5-.6.6-.6 1.1-.1 1.7.2 1.3.5zM380 447c0 .5-.2 1-.4 1-.3 0-.8-.5-1.1-1-.3-.6-.1-1 .4-1 .6 0 1.1.4 1.1 1zm-3.3 4.7c-.3 1-.5.2-.5-1.7s.2-2.7.5-1.8c.2 1 .2 2.6 0 3.5zm187.9-3.5c.4.7.3.8-.4.4s-1.2-.2-1.2.3c0 .6-.4 1.1-1 1.1-.5 0-3.9 1.3-7.5 3-3.6 1.6-7.3 3-8.3 2.9-1.1 0-.9-.4.8-1 1.4-.5 5.7-2.5 9.5-4.4 3.9-1.8 7.1-3.4 7.2-3.4.1-.1.5.4.9 1.1zm-238 4.5c-.7 5.5-4.5 12.3-8 14.7-4.1 2.6-3.8 1.9.9-2.8 4.2-4.2 6.5-9.3 6.5-14.4 0-1.2.3-2.2.6-2.2.4 0 .4 2.1 0 4.7zm53.2 2.3c0 .9-.3.7-.8-.5-.5-1.1-.8-2.9-.8-4 0-1.6.2-1.5.8.5.4 1.4.8 3.2.8 4zm-85.3 1c-2.2.6-.7.8 5.5 1l8.5.3-11 .8c-6 .4-15 .4-20 0-8.4-.8-8.6-.8-3-1 3.3-.2 8-.6 10.5-1 2.5-.5 6.3-.9 8.5-.9 3.8 0 3.8.1 1 .8zm249.2.6c-.3.3-1.2.4-1.9.1-.8-.3-.5-.6.6-.6 1.1-.1 1.7.2 1.3.5zm-281.4 1.1c-2.9.2-7.7.2-10.5 0-2.9-.2-.6-.3 5.2-.3s8.1.1 5.3.3zm268 0c-.7.2-1.9.2-2.5 0-.7-.3-.2-.5 1.2-.5s1.9.2 1.3.5zm-53.6.9c-.3.3-1.2.4-1.9.1-.8-.3-.5-.6.6-.6 1.1-.1 1.7.2 1.3.5zm42.6.1c-3.5.2-9.1.2-12.5 0-3.5-.2-.7-.3 6.2-.3s9.7.1 6.3.3zM381.5 461c1 1.1 1.6 2 1.3 2-.3 0-1.3-.9-2.3-2-1-1.1-1.6-2-1.3-2 .3 0 1.3.9 2.3 2zm110.8-1.3c-.7.2-1.9.2-2.5 0-.7-.3-.2-.5 1.2-.5s1.9.2 1.3.5zm-156.4 16.2l-.2 6.6-.7-5.5c-.4-3-1.1-6.6-1.5-8-.7-2.2-.6-2.3.9-1.1 1.2 1 1.6 2.9 1.5 8zm-22.3-6c-.8 1.2-4.6 2.1-4.6 1.1 0-.5.8-1.1 1.8-1.3 2.9-.8 3.3-.7 2.8.2zm-81.8.8c-1.6.2-4 .2-5.5 0-1.6-.2-.3-.4 2.7-.4s4.3.2 2.8.4zm19.2.3c-2 1.3-8.3 1.3-7.5 0 .3-.6 2.5-1 4.8-1 3.1 0 3.8.3 2.7 1zm52.5.5c.6.2-6 .3-14.5.3s-14.4-.3-13-.7c2.3-.7 25.3-.3 27.5.4zm-74.2 1.2c-1.3.2-3.3.2-4.5 0-1.3-.2-.3-.4 2.2-.4s3.5.2 2.3.4zm112.4 9.5c-.2 1.3-.4.3-.4-2.2s.2-3.5.4-2.3c.2 1.3.2 3.3 0 4.5zm-5 8.5c-.3 1-.5.2-.5-1.7s.2-2.7.5-1.8c.2 1 .2 2.6 0 3.5zm.2 23c-.1 9.3-.4 15.4-.7 13.8-.4-2.6-.5-2.8-1.2-1-.6 1.3-.9-.6-.9-5.5-.1-5.4.2-7.1.9-6 .8 1.1 1 .3.8-3-.3-6.3.1-15 .7-15 .3 0 .4 7.5.4 16.7zm98.8 1.2c-.1 1.2-.7 1.7-1.9 1.3-1.8-.4-1.8-.5-.1-1.8 2.3-1.7 2.2-1.7 2 .5zm-6.5 8.3c-.7.7-1.2.8-1.2.2 0-1.4 1.2-2.6 1.9-1.9.2.3-.1 1.1-.7 1.7zm-72.3 11.5c-.1 5.4-.2 5.6-1.1 2.6-1-2.9-.5-8.3.7-8.3.3 0 .5 2.6.4 5.7zm64.1-4.4c0 .2-3.9 4.3-8.7 9.3-4.9 4.9-7.7 7.6-6.3 5.9 2.8-3.4 14.3-15.5 14.7-15.5.2 0 .3.1.3.3zm-87.3 2.9c-.3.8-.6.5-.6-.6-.1-1.1.2-1.7.5-1.3.3.3.4 1.2.1 1.9zM241.5 544c1 1.1 1.6 2 1.3 2-.3 0-1.3-.9-2.3-2-1-1.1-1.6-2-1.3-2 .3 0 1.3.9 2.3 2zm123.2 27.2c-.3.8-.6.5-.6-.6-.1-1.1.2-1.7.5-1.3.3.3.4 1.2.1 1.9zm-7.9 16c-.1 14.7-.2 16.1-.8 9.3-.7-7.2-.2-26.5.7-26.5.1 0 .2 7.8.1 17.2zm-43.6-5.7c1.1 1.4 1 2.7-.1 2-.5-.3-2.4-2.4-4.2-4.8l-3.3-4.2 3.4 3c1.9 1.6 3.8 3.4 4.2 4zm52.5-1.8c-.3 1-.5.2-.5-1.7s.2-2.7.5-1.8c.2 1 .2 2.6 0 3.5zm-45.6-1c1.3 1.6 1.2 1.7-.3.4-1-.7-1.8-1.5-1.8-1.7 0-.8.8-.3 2.1 1.3zm22.6 11c-.2 2.1-.4.6-.4-3.2 0-3.9.2-5.5.4-3.8.2 1.8.2 5 0 7zm24.3 1.5c0 .5-.4.8-1 .8-.5 0-1-1-1-2.3 0-1.8.2-1.9 1-.7.5.8 1 1.8 1 2.2zm-39.2 3.8c.4 0 1.9 1.5 3.2 3.2l2.4 3.3-3.2-2.5c-1.7-1.4-4.5-3.5-6.2-4.8-1.7-1.3-2.8-2.7-2.5-3.2.3-.5 1.6.2 3 1.6 1.3 1.3 2.8 2.4 3.3 2.4zm43.1 6.6c-5.1 5.2-10.6 10.4-12.1 11.5l-2.8 2 .2-4.3c.1-3.8.2-3.9.5-1l.4 3.4 11-11.2c6.1-6.2 11.3-10.9 11.7-10.6.3.4-3.7 5-8.9 10.2zm-29.1 5.5l-.3 4.1-2-2.3c-1.5-1.8-1.5-2-.2-1 1.6 1.3 1.7.8 1.9-6 .1-4.8.3-5.9.5-3.2.2 2.4.3 6.2.1 8.4z"/><path d="M487.6 223.7c.7 3.1 3.3 7.7 4 7 .5-.5-3.5-9.7-4.2-9.7-.2 0-.2 1.2.2 2.7zM336.2 323c0 1.9.2 2.7.5 1.7.2-.9.2-2.5 0-3.5-.3-.9-.5-.1-.5 1.8zM314.5 464.1c-1.6 1-2.5 1.9-1.9 1.9.7 0 2.2-.9 3.5-2 3-2.4 2.3-2.4-1.6.1zM383.9 438.7c-1.3 1.5-1.2 1.5 1.1.3 3.4-1.7 3.6-2 1.8-2-.9 0-2.2.7-2.9 1.7zM282.3 78.6c-1.8.8-3.3 1.6-3.3 1.9 0 .7 6-1.6 6.6-2.6.6-1.1.7-1.1-3.3.7zM270.3 85.1c-3.5 2.2-4.6 3.7-1.5 2 2.2-1.3 5.8-4 5.2-4.1-.3 0-2 1-3.7 2.1zM230.9 117.5c-3.5 4.1-6.9 8.7-7.7 10.2l-1.3 2.8 2.1-2.5c10.4-12.4 14.2-17.2 13.8-17.5-.3-.3-3.3 2.9-6.9 7zM215.6 137.2c-5 7.9-5.9 9.9-4.9 10.9.5.5 2.6-2.8 5-7.6 2.2-4.7 3.9-8.5 3.7-8.5-.2 0-1.9 2.4-3.8 5.2zM518.3 212.1c-1 .3 2.3.8 7.3 1.2 4.9.3 12.8 1.5 17.4 2.7 9 2.2 32.6 11.5 39.8 15.6 6.4 3.7 5 2.2-2.4-2.7-7.7-5-14.7-8.4-20.7-10-2.3-.6-5.5-1.7-7.2-2.4-7-3.1-29.7-6-34.2-4.4zM165.5 216.7c-1.6.3-3.4.9-3.9 1.4-1.2 1.1 12.3 0 14.4-1.2 1.6-.9-4.8-1-10.5-.2zM154 219c-1.3.9-1.3 1 0 .9.8-.1 2.6-.5 4-.9l2.5-.8-2.5-.1c-1.4 0-3.2.4-4 .9zM147.3 221.1c-1.8.5-3.3 1.2-3.3 1.4 0 .8 5.3-.6 6.5-1.6 1-1 1.1-1-3.2.2zM645.1 309.6c0 1.1.3 1.4.6.6.3-.7.2-1.6-.1-1.9-.3-.4-.6.2-.5 1.3zM614 380.1c-.7 1.1-1 2.3-.7 2.5.2.2.9-.7 1.5-2.1 1.4-3 .7-3.3-.8-.4zM117 408.4c0 .2.8 1 1.8 1.7 1.5 1.3 1.6 1.2.3-.4s-2.1-2.1-2.1-1.3zM416.3 429.7c1.5.2 3.9.2 5.5 0 1.5-.2.2-.4-2.8-.4s-4.3.2-2.7.4zM183.3 432.7c.9.2 2.5.2 3.5 0 .9-.3.1-.5-1.8-.5-1.9 0-2.7.2-1.7.5zM343.1 466.4c-.1 3.4.2 4.7.9 4 .7-.7.7-2.4.1-5l-.9-3.9-.1 4.9zM234.7 507.7c-1.9.3-3.5 1.5-4.5 3.4-1 1.6-2 2.9-2.4 2.9-1.2 0-.9 4.6.4 7.5.6 1.4 1.5 2.5 2 2.5s.4-.9-.2-1.9c-.5-1.1-1-2.9-1-4 0-2.4 5.6-9.1 7.6-9.1.8 0 1.4-.5 1.4-1 0-.6-.1-.9-.2-.9-.2.1-1.6.4-3.1.6zM239.4 509.3c-.8 1 0 2.2 3.5 5.2 3.1 2.8 4.3 3.4 3.7 2-.4-1.3.7-.6 3.3 1.9 2.3 2.2 3.6 4.3 3.1 4.6-1 .6 8.5 10.3 16.4 16.6 5.3 4.2 5.1 2.1-.3-3-1.7-1.6-2.8-3.2-2.6-3.7.3-.4-1.7-2.4-4.5-4.4-2.7-2-5-3.9-5-4.2 0-.3.7 0 1.5.7.9.7 1.8 1.1 2 .8.6-.5-18-17.8-19.2-17.8-.4.1-1.3.6-1.9 1.3zM412.4 544.2l-1.9 2.3 2.3-1.9c2.1-1.8 2.7-2.6 1.9-2.6-.2 0-1.2 1-2.3 2.2zM402.7 568.8c-2.6 2.7-3.6 4.9-1.7 3.7 1-.6 5.3-6.5 4.8-6.5-.3 0-1.6 1.3-3.1 2.8zM386.5 601c-.3.5-.1 1 .4 1 .6 0 1.1-.5 1.1-1 0-.6-.2-1-.4-1-.3 0-.8.4-1.1 1zM380.5 606.4c-2.2 1.9-3.8 3.6-3.5 3.9.3.3 2.5-1.3 5-3.4 2.5-2.1 4.1-3.9 3.5-3.9-.5 0-2.8 1.6-5 3.4zM353 634.6c0 1.3-.7 1.5-3.7 1s-3.4-.4-2 .4c2.6 1.6 7.1.8 7.5-1.3.2-.9-.1-1.7-.7-1.7s-1.1.7-1.1 1.6z"/></svg>